#!OML:ASF H:\Terrain\Patient Classification 1\Animal1\Tuesday\Animal1.ASF
:FULLY-SPECIFIED
:DEGREES
2727
root 5.47871 16.444 2.98552 -354.546 -3.87013 0.7663
lowerback 1.4329 -0.626077 1.44629
upperback 2.1228 -0.826134 -0.257924
thorax 1.3471 -0.390176 -1.07244
lowerneck -8.61882 1.76672 -5.68769
upperneck -21.6847 3.40359 5.05238
head -5.33253 1.82018 2.49862
rclavicle -1.18277e-014 -9.83984e-015
rhumerus -17.4953 42.2381 -74.0626
rradius 45.5127
rwrist -19.3219
rhand -19.3665 26.8003
rfingers 7.12502
rthumb 6.95139 -3.06554
lclavicle -1.18277e-014 -9.83984e-015
lhumerus -20.1385 -30.0378 77.4049
lradius 56.0972
lwrist -23.0567
lhand 4.91799 42.831
lfingers 7.12502
lthumb 30.2917 430.365
rfemur -21.0605 9.71238 17.3499
rtibia 35.2758
rfoot -12.3756 -28.697
rtoes 1.77771
lfemur -15.517 -10.2067 -13.623
ltibia 28.5646
lfoot -17.3604 11.7823
ltoes -14.3181
2728
root 5.50799 16.4453 2.99205 -354.611 -3.93176 0.884072
lowerback 1.34585 -0.576478 1.19691
upperback 2.12611 -0.761567 -0.325599
thorax 1.40323 -0.360567 -1.00323
lowerneck -8.86482 1.80424 -5.53871
upperneck -21.7153 3.4513 4.98627
head -5.30298 1.83948 2.45435
rclavicle -3.95085e-015 3.37934e-015
rhumerus -17.3661 41.3225 -73.8658
rradius 45.6153
rwrist -19.1494
rhand -19.2833 27.1275
rfingers 7.12502
rthumb 7.03167 -2.73569
lclavicle -3.95085e-015 3.37934e-015
lhumerus -20.1521 -29.762 77.1903
lradius 56.262
lwrist -23.1165
lhand 6.27342 42.1492
lfingers 7.12502
lthumb 31.5838 429.438
rfemur -20.9539 9.72734 17.1314
rtibia 35.165
rfoot -13.4739 -28.4789
rtoes 4.59272
lfemur -15.5262 -10.0914 -13.8742
ltibia 28.7276
lfoot -17.7572 11.533
ltoes -13.163
2729
root 5.53539 16.4425 2.98895 -354.658 -3.93639 0.615065
lowerback 1.50141 -0.524468 1.3229
upperback 1.96313 -0.689618 -0.225245
thorax 1.15055 -0.326241 -0.968544
lowerneck -8.37882 1.85384 -5.60958
upperneck -22.2177 3.50121 4.89538
head -5.5434 1.86772 2.43269
rclavicle 7.11898e-015 2.17669e-014
rhumerus -17.5581 40.4991 -73.7792
rradius 45.6826
rwrist -18.9536
rhand -19.2072 27.2783
rfingers 7.12502
rthumb 7.10514 -2.58244
lclavicle 7.11898e-015 2.17669e-014
lhumerus -20.551 -29.5096 77.2464
lradius 56.5025
lwrist -23.2351
lhand 7.89691 41.7445
lfingers 7.12502
lthumb 33.129 428.717
rfemur -20.8532 9.93722 17.3266
rtibia 35.0521
rfoot -13.9161 -28.5949
rtoes 5.53136
lfemur -15.6219 -9.90971 -13.6702
ltibia 28.9221
lfoot -17.8137 11.4488
ltoes -14.5942
2730
root 5.564 16.4427 2.9835 -354.673 -3.94987 0.161261
lowerback 1.66693 -0.460204 1.75517
upperback 1.79788 -0.59702 -0.165475
thorax 0.887514 -0.278301 -1.14774
lowerneck -7.92678 1.93389 -5.57107
upperneck -22.7109 3.60327 4.87603
head -5.77837 1.91007 2.41419
rclavicle 5.34234e-015 -2.11706e-014
rhumerus -17.8326 39.4925 -73.7791
rradius 45.9841
rwrist -18.7331
rhand -18.8049 27.1342
rfingers 7.12502
rthumb 7.49352 -2.71303
lclavicle 5.34234e-015 -2.11706e-014
lhumerus -20.8076 -29.3464 77.1196
lradius 56.6229
lwrist -23.3496
lhand 8.3297 41.1826
lfingers 7.12502
lthumb 33.5404 428.067
rfemur -20.7672 10.2857 17.7239
rtibia 34.9523
rfoot -13.7087 -28.9967
rtoes 5.00203
lfemur -15.7114 -9.83776 -13.2413
ltibia 29.1406
lfoot -18.2106 10.9955
ltoes -12.9981
2731
root 5.59371 16.4421 2.97621 -354.618 -4.00855 -0.0911171
lowerback 1.68906 -0.348011 2.03227
upperback 1.64936 -0.442852 -0.175932
thorax 0.726095 -0.200942 -1.31449
lowerneck -7.95755 1.9614 -5.58062
upperneck -22.6334 3.65322 4.9334
head -5.75206 1.93382 2.43267
rclavicle 1.12065e-014 -4.96962e-016
rhumerus -18.1434 38.0917 -73.7993
rradius 46.2867
rwrist -18.2898
rhand -18.8443 27.2594
rfingers 7.12502
rthumb 7.45544 -2.58924
lclavicle 1.12065e-014 -4.96962e-016
lhumerus -20.8317 -29.4831 76.9454
lradius 56.5805
lwrist -23.3096
lhand 7.86063 40.3379
lfingers 7.12502
lthumb 33.0945 427.318
rfemur -20.8204 10.6159 17.8734
rtibia 34.8483
rfoot -13.9996 -29.0549
rtoes 6.46174
lfemur -15.9412 -9.60735 -13.0622
ltibia 29.3833
lfoot -18.13 11.1053
ltoes -13.6221
2732
root 5.62416 16.4392 2.98253 -354.518 -4.02104 -0.0778525
lowerback 1.4859 -0.254259 1.98246
upperback 1.48201 -0.321212 -0.165332
thorax 0.673216 -0.142463 -1.27746
lowerneck -7.92493 1.98359 -5.5717
upperneck -22.3787 3.65136 4.79165
head -5.67409 1.94091 2.38348
rclavicle -1.4387e-014 -1.78906e-014
rhumerus -18.4613 36.8288 -73.7846
rradius 46.3731
rwrist -17.8737
rhand -19.3508 27.77
rfingers 7.12502
rthumb 6.9665 -2.09535
lclavicle -1.4387e-014 -1.78906e-014
lhumerus -21.1487 -29.3938 77.0234
lradius 56.7254
lwrist -23.3992
lhand 7.66612 39.8942
lfingers 7.12502
lthumb 32.9095 426.913
rfemur -20.9078 10.5505 17.7167
rtibia 34.7844
rfoot -14.5235 -28.7767
rtoes 7.60423
lfemur -16.164 -9.41746 -13.2048
ltibia 29.5538
lfoot -17.9415 11.4155
ltoes -15.7929
2733
root 5.65787 16.4395 3.00554 -354.624 -3.98812 0.0808613
lowerback 1.25247 -0.248377 1.80983
upperback 1.55199 -0.31993 -0.214463
thorax 0.876259 -0.140681 -1.2323
lowerneck -7.94706 2.10131 -5.36466
upperneck -22.6051 3.77232 4.53815
head -5.74338 1.99853 2.26468
rclavicle -1.82633e-015 -1.13804e-014
rhumerus -18.3639 35.8856 -73.6213
rradius 46.5268
rwrist -17.6877
rhand -19.4844 28.2322
rfingers 7.12502
rthumb 6.83755 -1.63741
lclavicle -1.82633e-015 -1.13804e-014
lhumerus -21.2605 -28.7953 76.9303
lradius 56.8874
lwrist -23.6931
lhand 7.92291 39.9622
lfingers 7.12502
lthumb 33.1537 426.93
rfemur -20.6797 10.3029 17.4347
rtibia 34.7903
rfoot -14.6053 -28.6164
rtoes 6.91557
lfemur -15.9244 -9.52634 -13.5551
ltibia 29.5563
lfoot -18.2726 11.163
ltoes -14.3248
2734
root 5.6891 16.4418 3.0236 -354.803 -4.0246 0.229513
lowerback 1.12059 -0.240071 1.63649
upperback 1.7001 -0.31274 -0.293221
thorax 1.10259 -0.135424 -1.21688
lowerneck -8.21256 2.28615 -5.17042
upperneck -22.8357 4.01275 4.3807
head -5.78244 2.11318 2.17885
rclavicle -1.79527e-015 -1.07344e-014
rhumerus -18.2662 34.927 -73.4478
rradius 46.8564
rwrist -17.4681
rhand -19.4352 28.5185
rfingers 7.12502
rthumb 6.88502 -1.34953
lclavicle -1.79527e-015 -1.07344e-014
lhumerus -21.1964 -28.1374 76.722
lradius 57.0032
lwrist -23.9485
lhand 8.16074 40.4153
lfingers 7.12502
lthumb 33.3798 427.335
rfemur -20.4057 10.349 17.1551
rtibia 34.7901
rfoot -14.6183 -28.5515
rtoes 7.21867
lfemur -15.5702 -9.52298 -13.8935
ltibia 29.4845
lfoot -18.5084 10.8042
ltoes -12.0752
2735
root 5.71289 16.4438 3.03242 -354.828 -4.05172 0.388225
lowerback 0.982018 -0.15966 1.42826
upperback 1.60177 -0.207327 -0.337217
thorax 1.08333 -0.0856043 -1.14561
lowerneck -8.28681 2.38448 -5.14195
upperneck -22.5875 4.1271 4.27843
head -5.69505 2.17476 2.13803
rclavicle -6.70898e-015 1.32689e-014
rhumerus -18.7137 33.8952 -73.3969
rradius 47.2363
rwrist -17.3898
rhand -19.1008 28.3173
rfingers 7.12502
rthumb 7.20781 -1.53997
lclavicle -6.70898e-015 1.32689e-014
lhumerus -21.5804 -27.7594 76.7792
lradius 57.2831
lwrist -24.1245
lhand 8.32762 40.808
lfingers 7.12502
lthumb 33.5385 427.693
rfemur -20.3467 10.4615 16.8684
rtibia 34.7286
rfoot -15.77 -28.3186
rtoes 10.4816
lfemur -15.5039 -9.34645 -14.1828
ltibia 29.4667
lfoot -18.5456 10.6122
ltoes -11.6854
2736
root 5.73499 16.4421 3.04318 -354.748 -4.03121 0.384951
lowerback 0.772857 -0.0723641 1.3915
upperback 1.41476 -0.0930037 -0.33228
thorax 1.01243 -0.0305098 -1.12008
lowerneck -7.9964 2.39158 -5.14926
upperneck -22.6401 4.11098 4.17752
head -5.75625 2.17043 2.1028
rclavicle -4.44159e-015 1.10822e-014
rhumerus -19.245 32.6499 -73.3997
rradius 47.5466
rwrist -17.159
rhand -18.4895 27.6615
rfingers 7.12502
rthumb 7.7979 -2.17473
lclavicle -4.44159e-015 1.10822e-014
lhumerus -22.0952 -27.4649 76.8556
lradius 57.5605
lwrist -24.3353
lhand 8.50371 40.5365
lfingers 7.12502
lthumb 33.7058 427.385
rfemur -20.3615 10.4891 16.7784
rtibia 34.6354
rfoot -16.2906 -28.3684
rtoes 11.4804
lfemur -15.5908 -9.17914 -14.2766
ltibia 29.5131
lfoot -18.5243 10.6339
ltoes -13.2961
